<svg xmlns="http://www.w3.org/2000/svg" xmlns:xlink="http://www.w3.org/1999/xlink" width="500" zoomAndPan="magnify" viewBox="0 0 375 374.999991" height="500" preserveAspectRatio="xMidYMid meet" version="1.0"><defs><clipPath id="182895a8fe"><path d="M 13.125 232.5 L 61.875 232.5 L 61.875 280.5 L 13.125 280.5 Z M 13.125 232.5 " clip-rule="nonzero"/></clipPath></defs><path fill="#ffffff" d="M 175.234375 155.085938 L 154.652344 146.769531 C 154.652344 146.769531 159.628906 129.363281 158.316406 118.785156 C 157.003906 108.207031 149.753906 92.996094 155.101562 89.785156 C 160.449219 86.578125 167.746094 106.824219 167.746094 106.824219 C 167.746094 106.824219 169.691406 69.234375 175.585938 68.832031 C 181.480469 68.433594 177.359375 97.515625 177.359375 97.515625 C 177.359375 97.515625 186.109375 65.925781 191.1875 67.476562 C 196.269531 69.027344 185.511719 101.140625 185.511719 101.140625 C 185.511719 101.140625 198.628906 76.746094 203.300781 79.273438 C 207.972656 81.800781 192.433594 106.933594 192.433594 106.933594 C 192.433594 106.933594 207.078125 93.890625 209.878906 96.78125 C 212.683594 99.671875 204.035156 110.101562 195.886719 118.300781 C 187.738281 126.5 175.234375 155.085938 175.234375 155.085938 Z M 175.234375 155.085938 " fill-opacity="1" fill-rule="nonzero"/><path fill="#5e2c45" d="M 175.234375 155.832031 C 175.140625 155.832031 175.046875 155.816406 174.953125 155.777344 L 154.375 147.460938 C 154.019531 147.316406 153.832031 146.929688 153.9375 146.566406 C 153.988281 146.390625 158.855469 129.179688 157.578125 118.878906 C 157.144531 115.398438 156.046875 111.359375 154.988281 107.453125 C 152.769531 99.285156 150.671875 91.574219 154.71875 89.148438 C 155.550781 88.648438 156.496094 88.5625 157.457031 88.90625 C 161.320312 90.28125 165.238281 98.609375 167.203125 103.375 C 167.882812 93.03125 170.066406 68.464844 175.535156 68.089844 C 176.28125 68.039062 176.960938 68.324219 177.507812 68.910156 C 180.046875 71.644531 179.699219 81.804688 179.035156 89.316406 C 181.703125 80.953125 186.054688 68.96875 189.628906 67.003906 C 190.238281 66.671875 190.835938 66.589844 191.40625 66.761719 C 191.964844 66.933594 192.40625 67.328125 192.71875 67.933594 C 194.710938 71.8125 190.953125 85.988281 188.335938 94.671875 C 192.074219 88.421875 197.902344 79.613281 201.679688 78.480469 C 202.414062 78.261719 203.078125 78.308594 203.65625 78.617188 C 204.214844 78.921875 204.59375 79.433594 204.785156 80.140625 C 205.929688 84.4375 199.199219 96.890625 195.402344 103.417969 C 200.382812 99.335938 208.046875 93.816406 210.414062 96.261719 C 214.03125 99.996094 203.195312 112 196.414062 118.824219 C 188.457031 126.832031 176.039062 155.101562 175.917969 155.386719 C 175.792969 155.664062 175.519531 155.832031 175.234375 155.832031 Z M 155.546875 146.328125 L 174.84375 154.125 C 176.816406 149.683594 187.800781 125.382812 195.359375 117.773438 C 207.1875 105.867188 210.90625 98.914062 209.347656 97.300781 C 207.96875 95.878906 199.746094 101.421875 192.929688 107.492188 C 192.652344 107.734375 192.238281 107.742188 191.957031 107.503906 C 191.671875 107.269531 191.605469 106.855469 191.800781 106.542969 C 195.394531 100.734375 204.46875 84.734375 203.34375 80.527344 C 203.238281 80.125 203.066406 79.996094 202.945312 79.929688 C 202.726562 79.8125 202.453125 79.804688 202.109375 79.910156 C 197.871094 81.179688 189.164062 95.917969 186.167969 101.492188 C 185.984375 101.832031 185.570312 101.976562 185.214844 101.824219 C 184.863281 101.667969 184.683594 101.269531 184.804688 100.902344 C 187.351562 93.304688 193.492188 72.695312 191.394531 68.617188 C 191.210938 68.261719 191.03125 68.207031 190.96875 68.1875 C 190.910156 68.167969 190.714844 68.109375 190.347656 68.3125 C 186.351562 70.507812 180.136719 90.28125 178.078125 97.714844 C 177.972656 98.09375 177.589844 98.324219 177.207031 98.246094 C 176.824219 98.164062 176.566406 97.800781 176.621094 97.410156 C 177.554688 90.832031 179.335938 73.066406 176.417969 69.925781 C 176.105469 69.589844 175.839844 69.570312 175.636719 69.578125 C 172.359375 69.800781 169.429688 88.710938 168.492188 106.863281 C 168.472656 107.214844 168.207031 107.507812 167.855469 107.5625 C 167.503906 107.605469 167.167969 107.410156 167.046875 107.078125 C 165.53125 102.871094 160.761719 91.664062 156.957031 90.308594 C 156.40625 90.113281 155.941406 90.148438 155.484375 90.425781 C 152.40625 92.273438 154.449219 99.789062 156.425781 107.0625 C 157.5 111.019531 158.609375 115.109375 159.054688 118.691406 C 160.242188 128.273438 156.445312 143.027344 155.546875 146.328125 Z M 155.546875 146.328125 " fill-opacity="1" fill-rule="nonzero"/><path fill="#fe794e" d="M 87.589844 145.296875 C 87.589844 145.296875 42.46875 147.542969 0.710938 151.46875 L 0.710938 375.28125 C 0.710938 375.28125 69.09375 308.53125 89.273438 256.925781 C 89.273438 256.925781 104.34375 285.5625 130.277344 284.222656 C 166.523438 282.351562 200.246094 165.210938 198.285156 159.320312 C 196.324219 153.433594 143.167969 138.941406 137.003906 142.867188 C 130.835938 146.792969 120.1875 191.109375 120.1875 191.109375 C 120.1875 191.109375 114.488281 182.789062 108.605469 151.09375 Z M 87.589844 145.296875 " fill-opacity="1" fill-rule="nonzero"/><path fill="#ffffff" d="M 75.785156 111.519531 C 75.785156 111.519531 56.335938 45.585938 95.230469 40.820312 C 134.128906 36.050781 146.035156 76.167969 142.464844 106.753906 C 138.890625 137.339844 113.488281 135.351562 113.488281 135.351562 L 111.007812 150.246094 C 109.3125 160.429688 99.660156 167.28125 89.496094 165.515625 C 79.019531 163.699219 72.246094 153.476562 74.542969 143.089844 C 79.300781 121.578125 75.785156 111.519531 75.785156 111.519531 Z M 75.785156 111.519531 " fill-opacity="1" fill-rule="nonzero"/><path fill="#5e2c45" d="M 92.71875 166.539062 C 91.605469 166.539062 90.488281 166.445312 89.371094 166.25 C 84.125 165.339844 79.609375 162.402344 76.644531 157.980469 C 73.660156 153.523438 72.65625 148.179688 73.816406 142.925781 C 78.460938 121.933594 75.117188 111.863281 75.082031 111.765625 C 75.078125 111.753906 75.074219 111.742188 75.070312 111.730469 C 75.042969 111.628906 72.09375 101.542969 70.792969 89.144531 C 69.042969 72.414062 70.957031 59.65625 76.484375 51.230469 C 80.679688 44.832031 86.957031 41.082031 95.144531 40.078125 C 108.523438 38.4375 119.589844 41.875 128.042969 50.285156 C 142.4375 64.609375 145.207031 89.703125 143.203125 106.839844 C 139.921875 134.933594 118.300781 136.144531 114.117188 136.117188 L 111.742188 150.367188 C 110.890625 155.492188 108.089844 159.964844 103.859375 162.96875 C 100.550781 165.316406 96.6875 166.539062 92.71875 166.539062 Z M 76.492188 111.292969 C 76.714844 111.941406 79.960938 122.042969 75.269531 143.25 C 74.199219 148.097656 75.125 153.035156 77.882812 157.148438 C 80.617188 161.230469 84.785156 163.941406 89.625 164.78125 C 94.34375 165.601562 99.09375 164.523438 102.996094 161.753906 C 106.902344 158.980469 109.488281 154.851562 110.273438 150.125 L 112.753906 135.230469 C 112.820312 134.847656 113.164062 134.582031 113.546875 134.609375 C 114.558594 134.691406 138.28125 136.160156 141.726562 106.667969 C 143.6875 89.863281 141.007812 65.289062 126.992188 51.34375 C 118.882812 43.269531 108.230469 39.976562 95.324219 41.558594 C 87.59375 42.503906 81.675781 46.035156 77.730469 52.050781 C 65.066406 71.351562 76.214844 110.328125 76.492188 111.292969 Z M 76.492188 111.292969 " fill-opacity="1" fill-rule="nonzero"/><path fill="#5e2c45" d="M 133.429688 79.546875 C 138.53125 79.71875 138.328125 86.714844 133.636719 86.890625 C 128.945312 87.066406 128.332031 79.371094 133.429688 79.546875 Z M 133.429688 79.546875 " fill-opacity="1" fill-rule="nonzero"/><path fill="#5e2c45" d="M 108.394531 81.789062 C 113.496094 81.964844 113.289062 88.960938 108.597656 89.136719 C 103.910156 89.308594 103.296875 81.613281 108.394531 81.789062 Z M 108.394531 81.789062 " fill-opacity="1" fill-rule="nonzero"/><path fill="#5e2c45" d="M 128.699219 101.105469 C 127.425781 101.105469 125.851562 101 123.910156 100.738281 C 123.5 100.6875 123.214844 100.3125 123.269531 99.902344 C 123.324219 99.496094 123.703125 99.203125 124.105469 99.265625 C 128.660156 99.867188 132.480469 99.546875 132.601562 98.875 C 132.773438 97.90625 129.0625 93.582031 124.5 89.429688 C 124.195312 89.15625 124.171875 88.683594 124.449219 88.378906 C 124.726562 88.074219 125.195312 88.054688 125.5 88.328125 C 128.21875 90.800781 134.492188 96.804688 134.066406 99.140625 C 133.945312 99.816406 133.128906 101.105469 128.699219 101.105469 Z M 128.699219 101.105469 " fill-opacity="1" fill-rule="nonzero"/><path fill="#5e2c45" d="M 119.691406 114.601562 C 116.925781 114.601562 113.207031 113.808594 109.941406 110.429688 C 109.65625 110.132812 109.664062 109.660156 109.960938 109.375 C 110.257812 109.089844 110.726562 109.097656 111.011719 109.394531 C 116.351562 114.921875 123.046875 112.679688 123.328125 112.582031 C 123.714844 112.449219 124.140625 112.652344 124.277344 113.042969 C 124.414062 113.429688 124.210938 113.851562 123.824219 113.988281 C 123.675781 114.039062 122.019531 114.601562 119.691406 114.601562 Z M 119.691406 114.601562 " fill-opacity="1" fill-rule="nonzero"/><path fill="#5e2c45" d="M 87.402344 61.34375 C 87.402344 61.34375 93.382812 72.9375 103.097656 69.199219 C 112.8125 65.457031 112.441406 55.363281 112.441406 55.363281 C 112.441406 55.363281 122.53125 71.816406 134.113281 68.449219 C 145.695312 65.085938 137.851562 46.011719 137.851562 46.011719 C 137.851562 46.011719 156.535156 51.621094 158.777344 40.402344 C 161.019531 29.183594 152.050781 14.226562 88.523438 26.195312 C 88.523438 26.195312 93.898438 14.460938 87.171875 13.757812 C 80.445312 13.058594 79.183594 27.921875 79.183594 27.921875 C 79.183594 27.921875 63.207031 19.789062 59.984375 25.398438 C 56.761719 31.007812 69.234375 34.933594 69.234375 34.933594 C 69.234375 34.933594 52.277344 37.738281 49.476562 50.640625 C 46.671875 63.542969 56.34375 69.011719 56.34375 69.011719 C 56.34375 69.011719 40.507812 78.40625 43.3125 95.515625 C 46.113281 112.625 60.546875 116.410156 60.546875 116.410156 C 60.546875 116.410156 57.605469 128.46875 64.050781 132.398438 C 70.496094 136.324219 76.660156 132.398438 76.660156 132.398438 C 76.660156 132.398438 77.921875 124.964844 76.941406 116.972656 C 75.960938 108.976562 71.054688 86.121094 71.054688 86.121094 C 71.054688 86.121094 86.796875 84.109375 87.402344 61.34375 Z M 87.402344 61.34375 " fill-opacity="1" fill-rule="nonzero"/><path fill="#ffffff" d="M 74.558594 85.980469 C 74.558594 85.980469 57.464844 80.089844 56.0625 93.972656 C 54.539062 109.074219 76.695312 111.191406 76.695312 111.191406 " fill-opacity="1" fill-rule="nonzero"/><path fill="#5e2c45" d="M 76.695312 111.9375 C 76.671875 111.9375 76.648438 111.9375 76.621094 111.933594 C 76.105469 111.886719 63.921875 110.644531 58.160156 103.621094 C 55.902344 100.871094 54.949219 97.597656 55.320312 93.898438 C 55.699219 90.171875 57.195312 87.445312 59.769531 85.796875 C 65.492188 82.132812 74.425781 85.144531 74.800781 85.277344 C 75.191406 85.410156 75.398438 85.832031 75.261719 86.222656 C 75.128906 86.613281 74.707031 86.820312 74.316406 86.683594 C 74.230469 86.65625 65.679688 83.777344 60.570312 87.054688 C 58.398438 88.445312 57.132812 90.800781 56.800781 94.046875 C 56.46875 97.339844 57.3125 100.242188 59.3125 102.675781 C 64.683594 109.226562 76.644531 110.441406 76.765625 110.453125 C 77.171875 110.492188 77.472656 110.855469 77.433594 111.265625 C 77.398438 111.648438 77.074219 111.9375 76.695312 111.9375 Z M 76.695312 111.9375 " fill-opacity="1" fill-rule="nonzero"/><path fill="#5e2c45" d="M 74.417969 96.820312 C 74.210938 96.820312 74.007812 96.734375 73.859375 96.566406 C 73.675781 96.359375 69.253906 91.46875 63.152344 94.902344 C 62.792969 95.105469 62.339844 94.976562 62.140625 94.621094 C 61.9375 94.261719 62.066406 93.804688 62.421875 93.605469 C 69.59375 89.566406 74.925781 95.527344 74.980469 95.585938 C 75.25 95.894531 75.21875 96.363281 74.910156 96.636719 C 74.769531 96.757812 74.59375 96.820312 74.417969 96.820312 Z M 74.417969 96.820312 " fill-opacity="1" fill-rule="nonzero"/><path fill="#5e2c45" d="M 195.761719 171.847656 C 195.632812 171.847656 195.507812 171.8125 195.386719 171.746094 C 169.773438 156.859375 131.90625 153.644531 131.523438 153.613281 C 131.113281 153.582031 130.808594 153.222656 130.84375 152.8125 C 130.875 152.402344 131.242188 152.117188 131.644531 152.128906 C 132.027344 152.160156 170.226562 155.402344 196.136719 170.457031 C 196.492188 170.664062 196.613281 171.121094 196.40625 171.476562 C 196.269531 171.714844 196.019531 171.847656 195.761719 171.847656 Z M 195.761719 171.847656 " fill-opacity="1" fill-rule="nonzero"/><path fill="#5e2c45" d="M 89.273438 257.667969 C 89.164062 257.667969 89.058594 257.648438 88.957031 257.597656 C 88.585938 257.425781 88.425781 256.980469 88.597656 256.609375 C 88.808594 256.15625 109.726562 210.828125 109.726562 153.339844 C 109.726562 152.925781 110.0625 152.59375 110.472656 152.59375 C 110.882812 152.59375 111.214844 152.925781 111.214844 153.339844 C 111.214844 211.171875 90.160156 256.785156 89.945312 257.242188 C 89.820312 257.511719 89.550781 257.667969 89.273438 257.667969 Z M 89.273438 257.667969 " fill-opacity="1" fill-rule="nonzero"/><path fill="#5e2c45" d="M 0.984375 225.136719 C 0.671875 225.136719 0.382812 224.9375 0.28125 224.625 C 0.152344 224.234375 0.363281 223.8125 0.753906 223.683594 L 34.757812 212.464844 C 35.144531 212.332031 35.570312 212.546875 35.695312 212.9375 C 35.824219 213.328125 35.613281 213.75 35.222656 213.878906 L 1.21875 225.097656 C 1.140625 225.125 1.0625 225.136719 0.984375 225.136719 Z M 0.984375 225.136719 " fill-opacity="1" fill-rule="nonzero"/><path fill="#5e2c45" d="M 90.210938 174.964844 C 85.078125 174.964844 79.902344 173.632812 75.660156 170.585938 C 64.515625 162.578125 65.585938 147.558594 65.636719 146.921875 C 65.667969 146.511719 66.03125 146.203125 66.4375 146.238281 C 66.847656 146.269531 67.152344 146.628906 67.121094 147.039062 C 67.109375 147.1875 66.078125 161.867188 76.527344 169.375 C 85.058594 175.503906 102.25 174.824219 109.410156 165.324219 C 109.65625 164.996094 110.125 164.929688 110.453125 165.179688 C 110.78125 165.425781 110.847656 165.894531 110.597656 166.222656 C 106.601562 171.523438 98.457031 174.964844 90.210938 174.964844 Z M 90.210938 174.964844 " fill-opacity="1" fill-rule="nonzero"/><path fill="#5e2c45" d="M 305.359375 95.25 C 289.738281 95.25 274.285156 92.0625 262.390625 85.632812 C 259.339844 86.097656 249.84375 87.191406 239.984375 84.820312 C 229.789062 82.371094 222.699219 77.160156 218.914062 69.335938 C 218.800781 69.097656 218.820312 68.816406 218.964844 68.597656 C 219.109375 68.378906 219.355469 68.257812 219.625 68.265625 C 219.734375 68.277344 230.5 68.816406 242.882812 65.058594 C 241.714844 62.003906 241.007812 58.785156 240.777344 55.480469 C 239.875 42.449219 246.851562 30.882812 260.953125 22.03125 C 287.355469 5.460938 330.324219 3.292969 354.785156 17.300781 C 368.070312 24.910156 374.871094 36.621094 374.449219 51.164062 C 374.0625 64.625 366.46875 75.988281 352.484375 84.023438 C 339.507812 91.480469 322.335938 95.25 305.359375 95.25 Z M 262.523438 84.113281 C 262.648438 84.113281 262.769531 84.144531 262.878906 84.207031 C 287.28125 97.527344 327.148438 96.867188 351.746094 82.730469 C 365.253906 74.96875 372.589844 64.035156 372.960938 51.121094 C 373.363281 37.160156 366.824219 25.914062 354.042969 18.59375 C 330.007812 4.828125 287.738281 6.980469 261.746094 23.292969 C 252.257812 29.25 241.171875 39.648438 242.261719 55.375 C 242.5 58.792969 243.273438 62.117188 244.5625 65.25 C 244.640625 65.441406 244.636719 65.660156 244.546875 65.847656 C 244.460938 66.039062 244.296875 66.179688 244.097656 66.242188 C 233.640625 69.550781 224.152344 69.839844 220.820312 69.785156 C 229.121094 84.949219 250.714844 85.976562 262.40625 84.125 C 262.445312 84.117188 262.484375 84.113281 262.523438 84.113281 Z M 262.523438 84.113281 " fill-opacity="1" fill-rule="nonzero"/><path fill="#5e2c45" d="M 279.734375 48.960938 C 273.390625 49.09375 274.847656 58.210938 280.308594 57.457031 C 285.765625 56.703125 286.082031 48.832031 279.734375 48.960938 Z M 279.734375 48.960938 " fill-opacity="1" fill-rule="nonzero"/><path fill="#5e2c45" d="M 309.03125 48.960938 C 302.6875 49.09375 304.144531 58.210938 309.601562 57.457031 C 315.0625 56.703125 315.378906 48.832031 309.03125 48.960938 Z M 309.03125 48.960938 " fill-opacity="1" fill-rule="nonzero"/><path fill="#5e2c45" d="M 339.304688 48.960938 C 332.957031 49.09375 334.417969 58.210938 339.875 57.457031 C 345.335938 56.703125 345.652344 48.832031 339.304688 48.960938 Z M 339.304688 48.960938 " fill-opacity="1" fill-rule="nonzero"/><g clip-path="url(#182895a8fe)"><path fill="#fe794e" d="M 13.125 232.5 L 61.875 232.5 L 61.875 280.5 L 13.125 280.5 Z M 13.125 232.5 " fill-opacity="1" fill-rule="nonzero"/></g></svg>