<svg xmlns="http://www.w3.org/2000/svg" width="430" height="430" fill="none" viewBox="0 0 430 430"><path fill="#a866ee" d="M219.5 349.5c77.32 0 140-62.68 140-140s-62.68-140-140-140-140 62.68-140 140c0 33.507 11.771 64.265 31.404 88.364l-9.199 48.956c-.432 2.3 1.817 4.187 4.006 3.362l46.896-17.667c19.875 10.831 42.665 16.985 66.893 16.985"/><path fill="#a866ee" d="M288.082 331.58a140.6 140.6 0 0 1-28.582 2.92c-24.228 0-47.018-6.155-66.893-16.985l-39.926 15.041c19.858 10.805 42.621 16.944 66.819 16.944 24.917 0 48.314-6.509 68.582-17.92m-147.348 5.408 10.17-54.124C131.271 258.765 119.5 228.007 119.5 194.5c0-52.403 28.791-98.082 71.418-122.08C127.305 85.615 79.5 141.975 79.5 209.5c0 33.507 11.771 64.265 31.404 88.364l-9.199 48.956c-.432 2.3 1.817 4.187 4.006 3.362z" opacity=".5" style="mix-blend-mode:multiply"/><path stroke="#a866ee" stroke-dasharray="41 41" stroke-linecap="round" stroke-linejoin="round" stroke-width="7" d="M219.5 384.5c96.65 0 175-78.35 175-175s-78.35-175-175-175-175 78.35-175 175c0 36.763 11.336 70.879 30.704 99.042l-7.433 78.952 79.415-18.587c22.042 10.015 46.526 15.593 72.314 15.593"/></svg>