<svg xmlns="http://www.w3.org/2000/svg" width="430" height="430" fill="none" viewBox="0 0 430 430"><path fill="#ffc738" d="M303.815 247.908c1.098-2.231 4.279-2.234 5.381-.005L328.2 286.35l42.377 6.129c2.462.356 3.446 3.382 1.664 5.118L341.6 327.45l7.184 42.226c.416 2.448-2.151 4.314-4.351 3.161L306.5 352.95l-37.829 19.878c-2.2 1.156-4.77-.71-4.353-3.159l7.182-42.219-30.641-29.853c-1.782-1.736-.798-4.762 1.664-5.118l42.377-6.129zm4.584-125.958 17.509 9.579c2.076 1.136 2.082 4.116.009 5.259l-17.518 9.662-9.659 17.592c-1.142 2.078-4.13 2.073-5.264-.009l-9.577-17.583-17.591-9.659c-2.079-1.142-2.074-4.13.009-5.265l17.582-9.576 9.577-17.582c1.134-2.083 4.122-2.088 5.264-.009zm-159.398 159.2 17.563 9.566c2.086 1.136 2.086 4.132 0 5.269l-17.563 9.565-9.66 17.592c-1.141 2.078-4.13 2.073-5.264-.009l-9.576-17.583-17.563-9.565c-2.087-1.137-2.087-4.133 0-5.269l17.563-9.566 9.576-17.582c1.134-2.083 4.123-2.088 5.264-.009z"/><path fill="#ffc738" d="m296.8 317.85-7.6 44.2-20.531 10.781c-2.199 1.154-4.769-.711-4.352-3.16l7.183-42.221-30.637-29.849c-1.783-1.737-.797-4.764 1.666-5.118l24.571-3.533zm-150.5-7.3-6.874 12.591c-1.136 2.08-4.122 2.084-5.263.007L124.5 305.55l-17.564-9.566c-2.086-1.136-2.087-4.132 0-5.269l11.864-6.465 18.7 10.2zm159.401-159.2-6.961 12.688c-1.141 2.08-4.13 2.075-5.264-.008l-9.575-17.58-17.593-9.66c-2.079-1.142-2.074-4.13.008-5.264l11.885-6.476 18.7 10.2z" opacity=".5" style="mix-blend-mode:multiply"/><path stroke="#ffc738" stroke-linecap="round" stroke-linejoin="round" stroke-miterlimit="10" stroke-width="7" d="m137.9 136.15 122.6 122.6M57.1 55.35l59.9 59.9m135.201 55.6 21 20.9M143.6 62.25l87.3 87.3m-100.699 58.5 63.4 63.3M53.4 131.25l58.2 58.2m58.9 138.5 38.6 38.6M56.3 213.75l48.801 48.8m223.399-92.5 38 39.2M241.4 80.15l22.7 23.4m-47-47.4 8.6 8.6"/></svg>